<svg width="60" height="60" viewBox="0 0 60 60" fill="none" xmlns="http://www.w3.org/2000/svg">
<g id="fluent-mdl2:people-block">
<path id="Vector" d="M41.25 22.5C39.6875 22.5 38.2324 22.793 36.8848 23.3789C35.5371 23.9648 34.3457 24.7656 33.3105 25.7812C32.2754 26.7969 31.4648 27.998 30.8789 29.3848C30.293 30.7715 30 32.2266 30 33.75C30 35.5469 29.5996 37.2363 28.7988 38.8184C27.998 40.4004 26.875 41.7285 25.4297 42.8027C26.6992 43.4473 27.8418 44.2383 28.8574 45.1758C29.873 46.1133 30.752 47.168 31.4941 48.3398C32.2363 49.5117 32.793 50.7617 33.1641 52.0898C33.5352 53.418 33.7305 54.8047 33.75 56.25H30C30 54.707 29.707 53.252 29.1211 51.8848C28.5352 50.5176 27.7344 49.3262 26.7188 48.3105C25.7031 47.2949 24.502 46.4844 23.1152 45.8789C21.7285 45.2734 20.2734 44.9805 18.75 45C17.1875 45 15.7324 45.293 14.3848 45.8789C13.0371 46.4648 11.8457 47.2656 10.8105 48.2812C9.77539 49.2969 8.96484 50.498 8.37891 51.8848C7.79297 53.2715 7.5 54.7266 7.5 56.25H3.75C3.75 54.8242 3.94531 53.4473 4.33594 52.1191C4.72656 50.791 5.2832 49.541 6.00586 48.3691C6.72852 47.1973 7.59766 46.1426 8.61328 45.2051C9.62891 44.2676 10.7812 43.4668 12.0703 42.8027C10.625 41.7285 9.50195 40.4004 8.70117 38.8184C7.90039 37.2363 7.5 35.5469 7.5 33.75C7.5 32.207 7.79297 30.752 8.37891 29.3848C8.96484 28.0176 9.76562 26.8262 10.7812 25.8105C11.7969 24.7949 12.9883 23.9844 14.3555 23.3789C15.7227 22.7734 17.1875 22.4805 18.75 22.5C20.5469 22.5 22.2363 22.9004 23.8184 23.7012C25.4004 24.502 26.7285 25.625 27.8027 27.0703C28.5449 25.6055 29.4922 24.2969 30.6445 23.1445C31.7969 21.9922 33.1055 21.0449 34.5703 20.3027C33.125 19.2285 32.002 17.9004 31.2012 16.3184C30.4004 14.7363 30 13.0469 30 11.25C30 9.70703 30.293 8.25195 30.8789 6.88477C31.4648 5.51758 32.2656 4.32617 33.2812 3.31055C34.2969 2.29492 35.4883 1.48438 36.8555 0.878906C38.2227 0.273438 39.6875 -0.0195312 41.25 0C42.793 0 44.248 0.292969 45.6152 0.878906C46.9824 1.46484 48.1738 2.26562 49.1895 3.28125C50.2051 4.29688 51.0156 5.49805 51.6211 6.88477C52.2266 8.27148 52.5195 9.72656 52.5 11.25C52.5 13.0469 52.0996 14.7363 51.2988 16.3184C50.498 17.9004 49.375 19.2285 47.9297 20.3027C49.1992 20.9473 50.3418 21.7383 51.3574 22.6758C52.373 23.6133 53.252 24.668 53.9941 25.8398C54.7363 27.0117 55.293 28.2617 55.6641 29.5898C56.0352 30.918 56.2305 32.3047 56.25 33.75H52.5C52.5 32.207 52.207 30.752 51.6211 29.3848C51.0352 28.0176 50.2344 26.8262 49.2188 25.8105C48.2031 24.7949 47.002 23.9844 45.6152 23.3789C44.2285 22.7734 42.7734 22.4805 41.25 22.5ZM33.75 11.25C33.75 12.2852 33.9453 13.252 34.3359 14.1504C34.7266 15.0488 35.2637 15.8496 35.9473 16.5527C36.6309 17.2559 37.4219 17.793 38.3203 18.1641C39.2188 18.5352 40.1953 18.7305 41.25 18.75C42.2852 18.75 43.252 18.5547 44.1504 18.1641C45.0488 17.7734 45.8496 17.2363 46.5527 16.5527C47.2559 15.8691 47.793 15.0781 48.1641 14.1797C48.5352 13.2812 48.7305 12.3047 48.75 11.25C48.75 10.2148 48.5547 9.24805 48.1641 8.34961C47.7734 7.45117 47.2363 6.65039 46.5527 5.94727C45.8691 5.24414 45.0781 4.70703 44.1797 4.33594C43.2812 3.96484 42.3047 3.76953 41.25 3.75C40.2148 3.75 39.248 3.94531 38.3496 4.33594C37.4512 4.72656 36.6504 5.26367 35.9473 5.94727C35.2441 6.63086 34.707 7.42188 34.3359 8.32031C33.9648 9.21875 33.7695 10.1953 33.75 11.25ZM18.75 41.25C19.7852 41.25 20.752 41.0547 21.6504 40.6641C22.5488 40.2734 23.3496 39.7363 24.0527 39.0527C24.7559 38.3691 25.293 37.5781 25.6641 36.6797C26.0352 35.7812 26.2305 34.8047 26.25 33.75C26.25 32.7148 26.0547 31.748 25.6641 30.8496C25.2734 29.9512 24.7363 29.1504 24.0527 28.4473C23.3691 27.7441 22.5781 27.207 21.6797 26.8359C20.7812 26.4648 19.8047 26.2695 18.75 26.25C17.7148 26.25 16.748 26.4453 15.8496 26.8359C14.9512 27.2266 14.1504 27.7637 13.4473 28.4473C12.7441 29.1309 12.207 29.9219 11.8359 30.8203C11.4648 31.7188 11.2695 32.6953 11.25 33.75C11.25 34.7852 11.4453 35.752 11.8359 36.6504C12.2266 37.5488 12.7637 38.3496 13.4473 39.0527C14.1309 39.7559 14.9219 40.293 15.8203 40.6641C16.7188 41.0352 17.6953 41.2305 18.75 41.25ZM53.291 50.625L59.9121 57.2754L57.2754 59.9121L50.625 53.291L43.9746 59.9414L41.3379 57.2754L47.9883 50.625L41.3379 43.9746L43.9746 41.3379L50.625 47.9883L57.2754 41.3379L59.9121 44.0039L53.291 50.625Z" fill="#F1F3F5"/>
</g>
</svg>
